<?xml version="1.0" encoding="utf-8"?>
<svg version="1.1" xmlns:xlink="http://www.w3.org/1999/xlink" width="10px" height="10px" xmlns="http://www.w3.org/2000/svg">
  <g transform="matrix(1 0 0 1 -122 -242 )">
    <path d="M 127 242  C 129.8 242  132 244.2  132 247  C 132 249.8  129.8 252  127 252  C 124.2 252  122 249.8  122 247  C 122 244.2  124.2 242  127 242  Z " fill-rule="nonzero" fill="#ffffff" stroke="none" />
    <path d="M 127 242.5  C 129.52 242.5  131.5 244.48  131.5 247  C 131.5 249.52  129.52 251.5  127 251.5  C 124.48 251.5  122.5 249.52  122.5 247  C 122.5 244.48  124.48 242.5  127 242.5  Z " stroke-width="1" stroke="#797979" fill="none" />
  </g>
</svg>